HIERARCHY
ROOT Hips
{
	OFFSET -3.958830 18.904000 13.208200
	CHANNELS 6 Xposition Yposition Zposition Zrotation Yrotation Xrotation 
	JOINT LHipJoint
	{
		OFFSET 0.000000 0.000000 0.000000
		CHANNELS 3 Zrotation Yrotation Xrotation
		JOINT LeftUpLeg
		{
			OFFSET 1.800000 -1.400000 0.085000
			CHANNELS 3 Zrotation Yrotation Xrotation
			JOINT LeftLeg
			{
				OFFSET 2.215000 -6.000000 0.000000
				CHANNELS 3 Zrotation Yrotation Xrotation
				JOINT LeftFoot
				{
					OFFSET 2.500000 -6.900000 0.000000
					CHANNELS 3 Zrotation Yrotation Xrotation
					JOINT LeftToeBase
					{
						OFFSET 0.200000 -0.500000 1.950000
						CHANNELS 3 Zrotation Yrotation Xrotation
						End Site
						{
							OFFSET 0.000000 0.000000 0.000000
						}
					}
				}
			}
		}
	}
	JOINT RHipJoint
	{
		OFFSET 0.000000 0.000000 0.000000
		CHANNELS 3 Zrotation Yrotation Xrotation
		JOINT RightUpLeg
		{
			OFFSET -1.800000 -1.400000 0.085000
			CHANNELS 3 Zrotation Yrotation Xrotation
			JOINT RightLeg
			{
				OFFSET -2.215000 -6.000000 0.000000
				CHANNELS 3 Zrotation Yrotation Xrotation
				JOINT RightFoot
				{
					OFFSET -2.500000 -6.900000 0.000000
					CHANNELS 3 Zrotation Yrotation Xrotation
					JOINT RightToeBase
					{
						OFFSET -0.200000 -0.500000 1.950000
						CHANNELS 3 Zrotation Yrotation Xrotation
						End Site
						{
							OFFSET 0.000000 0.000000 0.000000
						}
					}
				}
			}
		}
	}
	JOINT LowerBack
	{
		OFFSET 0.000000 0.000000 0.000000
		CHANNELS 3 Zrotation Yrotation Xrotation
		JOINT Spine
		{
			OFFSET -0.087000 1.940000 -0.288900
			CHANNELS 3 Zrotation Yrotation Xrotation
			JOINT Spine1
			{
				OFFSET 0.000000 1.950000 0.060000
				CHANNELS 3 Zrotation Yrotation Xrotation
				JOINT Neck
				{
					OFFSET 0.000000 0.000000 0.000000
					CHANNELS 3 Zrotation Yrotation Xrotation
					JOINT Neck1
					{
						OFFSET 0.000000 1.600000 0.340000
						CHANNELS 3 Zrotation Yrotation Xrotation
						JOINT Head
						{
							OFFSET 0.000000 1.667000 -0.240000
							CHANNELS 3 Zrotation Yrotation Xrotation
							End Site
							{
								OFFSET 0.000000 0.000000 0.000000
							}
						}
					}
				}
				JOINT LeftShoulder
				{
					OFFSET 0.000000 0.000000 0.000000
					CHANNELS 3 Zrotation Yrotation Xrotation
					JOINT LeftArm
					{
						OFFSET 2.700000 1.550000 -0.730000
						CHANNELS 3 Zrotation Yrotation Xrotation
						JOINT LeftForeArm
						{
							OFFSET 5.450000 0.000000 0.000000
							CHANNELS 3 Zrotation Yrotation Xrotation
							JOINT LeftHand
							{
								OFFSET 3.450000 0.000000 0.000000
								CHANNELS 3 Zrotation Yrotation Xrotation
								JOINT LeftHandIndex1
								{
									OFFSET 0.750000 0.000000 0.000000
									CHANNELS 3 Zrotation Yrotation Xrotation
									End Site
									{
										OFFSET 0.000000 0.000000 0.000000
									}
								}
							}
						}
					}
				}
				JOINT RightShoulder
				{
					OFFSET 0.000000 0.000000 0.000000
					CHANNELS 3 Zrotation Yrotation Xrotation
					JOINT RightArm
					{
						OFFSET -2.700000 1.550000 -0.730000
						CHANNELS 3 Zrotation Yrotation Xrotation
						JOINT RightForeArm
						{
							OFFSET -5.450000 0.000000 0.000000
							CHANNELS 3 Zrotation Yrotation Xrotation
							JOINT RightHand
							{
								OFFSET -3.450000 0.000000 0.000000
								CHANNELS 3 Zrotation Yrotation Xrotation
								JOINT RightHandIndex1
								{
									OFFSET -0.750000 0.000000 0.000000
									CHANNELS 3 Zrotation Yrotation Xrotation
									End Site
									{
										OFFSET 0.000000 0.000000 0.000000
									}
								}
							}
						}
					}
				}
			}
		}
	}
}
MOTION
Frames: 6
Frame Time: 0.016667
0.665580 17.202670 -1.893760 -6.508124 -13.545992 18.896067 -15.339580 12.297258 3.893396 -4.290943 -3.000938 -15.649778 -8.438630 2.079507 -7.835375 -0.296194 2.835585 3.686809 0.087380 -0.115090 0.107870 18.069141 -10.796365 3.205390 -9.507450 -0.730083 7.193495 6.392846 -5.142693 -0.120921 -0.816027 -4.840068 2.838044 -0.104860 0.118860 0.186280 -2.806041 -0.619462 -8.431068 2.450701 5.554258 -4.549519 3.242796 4.792769 -14.126260 2.919397 -0.749446 -14.692561 -5.313939 4.013095 55.595213 -1.863450 4.351870 -3.023540 -16.301284 -11.361051 4.167103 5.965709 1.725834 0.197829 6.338997 -7.829375 -0.217116 -3.928454 2.569596 0.524390 0.018690 0.164670 0.094850 12.536754 14.069663 9.166294 0.364266 3.539739 -1.023478 -6.458380 5.423579 0.339581 2.611455 -0.870733 -0.147180 0.182020 0.086320 -0.151290 
0.659190 17.205160 -1.904750 -6.517835 -13.507540 18.793703 -15.343084 12.296607 3.887979 -4.135308 -2.981086 -15.651296 -8.566684 2.093824 -7.817905 -0.297581 2.853550 3.682742 0.087620 -0.117400 0.109800 18.066453 -10.791552 3.206099 -9.495430 -0.747370 7.269254 6.456761 -5.159677 -0.128188 -0.817110 -4.851629 2.835424 -0.104540 0.121600 0.186540 -2.797908 -0.626969 -8.426653 2.394317 5.586391 -4.475797 3.296475 4.808391 -14.000217 2.926813 -0.775181 -14.657325 -5.407580 3.987806 55.613857 -1.956420 4.287190 -2.992950 -16.416864 -11.384333 4.132252 5.989786 1.586559 0.192828 6.263613 -7.807222 -0.222130 -3.930719 2.565622 0.525540 0.021250 0.162240 0.094180 12.658591 14.111309 9.161660 0.100760 3.482114 -1.032644 -6.290017 5.377396 0.339608 2.609703 -0.869444 -0.149680 0.184150 0.086850 -0.152640 
0.654100 17.207510 -1.914530 -6.506561 -13.437260 18.698713 -15.346129 12.297327 3.885731 -4.023297 -2.962534 -15.634484 -8.672714 2.103183 -7.829410 -0.297719 2.871021 3.678631 0.087610 -0.118240 0.108480 18.063607 -10.788307 3.204708 -9.501080 -0.760473 7.325802 6.521952 -5.179070 -0.098777 -0.818146 -4.860391 2.833770 -0.103150 0.126330 0.186760 -2.790790 -0.635609 -8.423281 2.353153 5.583708 -4.438472 3.358495 4.796451 -13.945527 2.914819 -0.833838 -14.613695 -5.570760 4.022053 55.736581 -1.944950 4.198050 -2.957520 -16.519581 -11.379230 4.094639 5.986654 1.476681 0.197591 6.123784 -7.794747 -0.224718 -3.932423 2.562810 0.525930 0.023370 0.160820 0.096040 12.803591 14.147289 9.122871 -0.207928 3.564689 -1.040364 -6.078262 5.138230 0.337955 2.611785 -0.865369 -0.151960 0.188900 0.088160 -0.151610 
0.648790 17.209800 -1.923940 -6.497778 -13.355128 18.618402 -15.347841 12.299250 3.887451 -3.906231 -2.945037 -15.616547 -8.770952 2.104947 -7.889691 -0.297191 2.888008 3.673077 0.088900 -0.117350 0.109050 18.061297 -10.787129 3.201659 -9.488391 -0.776937 7.349197 6.577532 -5.198181 -0.029692 -0.818741 -4.862893 2.832385 -0.101360 0.128640 0.187270 -2.786258 -0.644178 -8.423344 2.336428 5.562634 -4.409524 3.384052 4.777319 -13.953789 2.898925 -0.877347 -14.569498 -5.703107 4.060377 55.932571 -1.895740 4.118230 -2.963240 -16.599052 -11.348958 4.049070 6.001007 1.362391 0.200989 6.007715 -7.738247 -0.229711 -3.933731 2.560027 0.527010 0.023730 0.161100 0.096620 12.923791 14.143558 9.074552 -0.402288 3.661528 -1.052732 -6.005675 4.961859 0.334327 2.613902 -0.862261 -0.152970 0.192380 0.089000 -0.150860 
0.643850 17.211160 -1.932420 -6.435645 -13.265782 18.509022 -15.350976 12.295378 3.888297 -3.853592 -2.926645 -15.542133 -8.844918 2.101785 -7.972718 -0.294341 2.901866 3.668762 0.093050 -0.112560 0.110220 18.058903 -10.788982 3.194879 -9.520352 -0.783168 7.384837 6.637275 -5.224212 0.081152 -0.820952 -4.870906 2.827624 -0.097930 0.128930 0.187950 -2.779963 -0.639311 -8.416631 2.237508 5.527537 -4.401003 3.435642 4.732685 -13.859383 2.879333 -0.917919 -14.534417 -5.791591 4.095910 56.009365 -1.853710 4.073270 -2.972160 -16.598146 -11.320909 4.032871 5.930311 1.252182 0.201693 5.941276 -7.635754 -0.237131 -3.934073 2.561799 0.526340 0.023160 0.161440 0.098480 12.971151 14.139861 9.037373 -0.452722 3.815238 -1.055384 -6.027218 4.787401 0.324942 2.616652 -0.864480 -0.151880 0.193070 0.087610 -0.149800 
0.639330 17.211760 -1.940630 -6.394759 -13.171226 18.411574 -15.351598 12.295471 3.889852 -3.804391 -2.914132 -15.498016 -8.886241 2.100058 -8.025652 -0.295103 2.912265 3.665211 0.095720 -0.109410 0.111530 18.058215 -10.791225 3.190698 -9.498971 -0.799374 7.411499 6.696644 -5.246011 0.190780 -0.820226 -4.876113 2.824423 -0.093530 0.129290 0.186700 -2.779493 -0.639085 -8.414073 2.209200 5.495437 -4.361005 3.418514 4.700845 -13.820926 2.874045 -0.947567 -14.479364 -5.840644 4.110412 56.004702 -1.843880 4.036150 -2.979060 -16.603055 -11.246622 3.982560 5.847529 1.084442 0.197370 6.010902 -7.546070 -0.247199 -3.936869 2.560794 0.524690 0.023720 0.159540 0.098610 12.978539 14.096820 8.998319 -0.473981 3.918997 -1.045160 -5.986821 4.683368 0.316394 2.617495 -0.866692 -0.153040 0.194330 0.087090 -0.150200 
